{
  "asset": {
    "version": "2.0",
    "generator": "Grok AI - Neural Brain"
  },
  "scenes": [
    {
      "nodes": [
        0
      ]
    }
  ],
  "nodes": [
    {
      "mesh": 0,
      "name": "BrainSurface"
    },
    {
      "mesh": 1,
      "name": "NeuralNodes"
    }
  ],
  "meshes": [
    {
      "primitives": [
        {
          "attributes": {
            "POSITION": 0
          },
          "indices": 0,
          "material": 0
        }
      ]
    },
    {
      "primitives": [
        {
          "attributes": {
            "POSITION": 1
          },
          "material": 1,
          "mode": 0
        }
      ]
    }
  ],
  "accessors": [
    {
      "bufferView": 0,
      "componentType": 5126,
      "count": 300,
      "type": "VEC3",
      "min": [
        -2.5,
        -2.0,
        -2.0
      ],
      "max": [
        2.5,
        2.0,
        2.0
      ]
    },
    {
      "bufferView": 1,
      "componentType": 5126,
      "count": 52,
      "type": "VEC3"
    },
    {
      "bufferView": 2,
      "componentType": 5123,
      "count": 1596,
      "type": "SCALAR"
    }
  ],
  "bufferViews": [
    {
      "buffer": 0,
      "byteOffset": 0,
      "byteLength": 3600
    },
    {
      "buffer": 0,
      "byteOffset": 3600,
      "byteLength": 624
    },
    {
      "buffer": 0,
      "byteOffset": 4224,
      "byteLength": 3192
    }
  ],
  "buffers": [
    {
      "uri": "data:application/octet-stream;base64,",
      "byteLength": 7416
    }
  ],
  "materials": [
    {
      "name": "BrainWireframe",
      "pbrMetallicRoughness": {
        "baseColorFactor": [
          0.35,
          0.15,
          0.55,
          1.0
        ]
      },
      "emissiveFactor": [
        0.7,
        0.5,
        1.0
      ],
      "doubleSided": true
    },
    {
      "name": "GlowingNodes",
      "pbrMetallicRoughness": {
        "baseColorFactor": [
          1.0,
          1.0,
          1.0,
          1.0
        ]
      },
      "emissiveFactor": [
        1.2,
        1.2,
        1.5
      ],
      "emissiveIntensity": 2.0
    }
  ]
}